<mxfile host="app.diagrams.net" modified="2024-01-27T09:08:13.770Z" agent="Mozilla/5.0 (Macintosh; Intel Mac OS X 10_15_7) AppleWebKit/537.36 (KHTML, like Gecko) Chrome/120.0.0.0 Safari/537.36" version="23.0.2" etag="PWgSEa2FKAxCkCwp31EQ" type="github">
  <diagram name="Page-1" id="-mrLlR24fQoxRGMoSIst">
    <mxGraphModel>
      <root>
        <mxCell id="0" />
        <mxCell id="1" parent="0" />
      </root>
    </mxGraphModel>
  </diagram>
</mxfile>
